# xmcd CD database file
#
# Track frame offsets:
#	150
#	15970
#	26376
#	39378
#	53536
#	76453
#	88860
#	103261
#	116055
#	129619
#	141461
#	155313
#	169389
#	184006
#	196485
#	208636
#	221463
#	236125
#	252145
#	264306
#	276581
#	293104
#	307166
#	319281
#	332682
#
# Disc length: 4568 seconds
#
# Revision: 0
# Processed by: cddbd v1.4PL0 Copyright (c) Steve Scherf et al.
# Submitted via: CDex 1.50
#
DISCID=7511d619
DTITLE=Various Artist - 100 thèmes de jazz de légende
DYEAR=2003
DGENRE=Jazz
TTITLE0=FLY ME TO THE MOON
TTITLE1=ON THE ALAMO
TTITLE2=BLUEBERRY HILL
TTITLE3=MOONLIGHT IN VERMONT
TTITLE4=THE MAN I LOVE
TTITLE5=THE VERY THOUGHT OH YOU
TTITLE6=WHAT'S NEW
TTITLE7=BLUE MOON
TTITLE8=TOO MARVELOUS FOR WORDS
TTITLE9=ST. LOUIS BLUES
TTITLE10=COCKTAILS FOR TWO
TTITLE11=APRIL IN PARIS
TTITLE12=ON THE SUNNY SIDE OF THE STREET
TTITLE13=SWEET AND LOVELY
TTITLE14=LAURA
TTITLE15=A FOGGY DAY
TTITLE16=HOW HIGH THE MOON
TTITLE17=LOVER, COME BACK TO ME
TTITLE18=FINE AND DANDY
TTITLE19=INDIANA
TTITLE20=POLKA DOTS AND MOONBEAMS
TTITLE21=PERDIDO
TTITLE22=TIME ON MY HANDS
TTITLE23=SEPTEMBER IN THE RAIN
TTITLE24=WHEN THE SAINTS GO MARCIN' IN
EXTD=YEAR: 2003
EXTT0=
EXTT1=
EXTT2=
EXTT3=
EXTT4=
EXTT5=
EXTT6=
EXTT7=
EXTT8=
EXTT9=
EXTT10=
EXTT11=
EXTT12=
EXTT13=
EXTT14=
EXTT15=
EXTT16=
EXTT17=
EXTT18=
EXTT19=
EXTT20=
EXTT21=
EXTT22=
EXTT23=
EXTT24=
PLAYORDER=
